<svg xmlns="http://www.w3.org/2000/svg" xmlns:xlink="http://www.w3.org/1999/xlink" viewBox="0,0,256,256" width="40px" height="40px" fill-rule="nonzero"><g fill="none" fill-rule="nonzero" stroke="none" stroke-width="1" stroke-linecap="butt" stroke-linejoin="miter" stroke-miterlimit="10" stroke-dasharray="" stroke-dashoffset="0" font-family="none" font-weight="none" font-size="none" text-anchor="none" style="mix-blend-mode: normal"><g transform="scale(6.4,6.4)"><path d="M12.5,38.5l3,-2.25v-24.5l-3,-2.25h12.5c2.25,0 6.933,0 10.084,4.742c1.604,2.325 2.416,5.605 2.416,9.758v0.517c-0.193,13.983 -9.134,13.983 -12.5,13.983zM18.5,36.5h6.865c3.936,0 8.135,-0.966 8.135,-12.5c0,-4.441 -0.526,-7.316 -1.76,-9.613c-1.753,-2.891 -4.491,-2.891 -5.962,-2.891l-7.278,0.004z" fill="#bf9aca"></path><path d="M25,10c2.163,0 6.664,0 9.677,4.534c1.541,2.232 2.323,5.417 2.323,9.466v0.503c-0.186,13.497 -8.769,13.497 -12,13.497h-11l1.6,-1.2l0.4,-0.3v-0.5v-24v-0.5l-0.4,-0.3l-1.6,-1.2h11M18,37h1h6h0.178h0.188c4.484,0 8.634,-1.575 8.634,-13c0,-4.53 -0.544,-7.475 -1.819,-9.849l-0.012,-0.023l-0.014,-0.022c-1.886,-3.109 -4.807,-3.109 -6.376,-3.109l-0.413,0.002l-0.366,0.001h-6h-1v1v24v1M25,9h-14l4,3v24l-4,3h14c3.2,0 12.8,0 13,-14.483c0,-0.207 0,-0.31 0,-0.517c0,-4.655 -1,-7.862 -2.5,-10.034c-3.3,-4.966 -8.2,-4.966 -10.5,-4.966zM19,36v-24h6c0.248,0 0.509,-0.004 0.779,-0.004c1.803,0 4.024,0.161 5.521,2.627c1,1.862 1.7,4.411 1.7,9.376c0,11.774 -4.53,12 -7.634,12c-0.124,0 -0.246,0 -0.366,0h-6z" fill="#3b2f4c"></path><path d="M3.5,30.5l3,-2.25v-24.5l-3,-2.25h12.5c2.25,0 6.933,0 10.084,4.742c1.604,2.325 2.416,5.605 2.416,9.758v0.517c-0.193,13.983 -9.134,13.983 -12.5,13.983zM9.5,28.5h6.5c3.233,0 8.5,0 8.5,-12.5c0,-4.441 -0.526,-7.316 -1.76,-9.613c-1.597,-2.887 -4.692,-2.887 -6.74,-2.887h-6.5z" fill="#bf9aca"></path><path d="M16,2c2.163,0 6.664,0 9.677,4.534c1.541,2.232 2.323,5.417 2.323,9.466v0.503c-0.186,13.497 -8.769,13.497 -12,13.497h-11l1.6,-1.2l0.4,-0.3v-0.5v-24v-0.5l-0.4,-0.3l-1.6,-1.2h11M9,29h1h6h0.087c3.115,0 8.913,0 8.913,-13c0,-4.53 -0.544,-7.475 -1.825,-9.86c-1.737,-3.14 -5.141,-3.14 -7.175,-3.14h-6h-1v1v24v1M16,1h-14l4,3v24l-4,3h14c3.2,0 12.8,0 13,-14.483c0,-0.207 0,-0.31 0,-0.517c0,-4.655 -1,-7.862 -2.5,-10.034c-3.3,-4.966 -8.2,-4.966 -10.5,-4.966zM10,28v-24h6c2.377,0 4.926,0.141 6.3,2.624c1,1.862 1.7,4.41 1.7,9.376c0,11.945 -4.81,12 -7.913,12c-0.029,0 -0.058,0 -0.087,0h-6z" fill="#3b2f4c"></path><path d="M16,26h2v6h-2z" fill="#bf9aca"></path><path d="M15,26h1v6h-1zM18,26h1v6h-1z" fill="#3b2f4c"></path></g></g></svg>